<svg version="1.1" id="Layer_1" xmlns="http://www.w3.org/2000/svg" xmlns:xlink="http://www.w3.org/1999/xlink" x="0px" y="0px"
	 width="100%" viewBox="0 0 215 205" enable-background="new 0 0 215 205" xml:space="preserve">
<path fill="#FFFFFF" opacity="1.000000" stroke="none" 
	d="
M216.000000,78.000000 
	C216.000000,119.833336 215.959900,161.166794 216.083725,202.499756 
	C216.092667,205.483109 215.482300,206.086884 212.499878,206.082306 
	C143.166702,205.975845 73.833298,205.975861 4.500126,206.082306 
	C1.517699,206.086884 0.912703,205.482361 0.917573,202.499863 
	C1.025343,136.500046 1.025343,70.499962 0.917572,4.500134 
	C0.912702,1.517645 1.517699,0.913105 4.500126,0.917685 
	C73.833298,1.024141 143.166702,1.024141 212.499878,0.917685 
	C215.482300,0.913105 216.104507,1.515154 216.085785,4.500538 
	C215.933289,28.832916 216.000000,53.166668 216.000000,78.000000 
z"/>
<path fill="#CDCDCD" opacity="1.000000" stroke="none" 
	d="
M68.073784,23.005501 
	C83.057037,14.562323 98.723862,10.110174 115.624855,11.036248 
	C148.017700,12.811186 172.431183,27.991112 188.841721,55.815300 
	C197.977112,71.304459 201.808151,88.431160 199.773895,106.173531 
	C195.790085,140.919434 177.614807,166.245102 145.212082,179.582687 
	C98.506714,198.807465 45.646538,174.116974 29.418095,126.571243 
	C16.863443,89.788879 30.913000,48.042458 63.187950,26.231033 
	C64.704597,25.206078 66.225807,24.187874 68.073784,23.005501 
z"/>
<path fill="#D3D3D3" opacity="1.000000" stroke="none" 
	d="
M145.767731,24.202702 
	C173.359955,37.311790 189.119247,58.581989 193.042831,88.608109 
	C196.561493,115.535408 187.988327,138.429810 169.052460,157.183533 
	C156.299438,169.813873 140.576965,177.055573 122.344963,179.152679 
	C95.577995,182.231491 72.826744,174.083038 54.126717,155.364594 
	C41.313213,142.538483 33.952534,126.709190 31.839800,108.286552 
	C28.768480,81.505287 36.954845,58.770889 55.679253,40.087303 
	C68.509491,27.285036 84.346298,19.938223 102.766678,17.789392 
	C117.747047,16.041853 131.755020,18.294617 145.767731,24.202702 
z"/>
<path fill="#4D4D4D" opacity="1.000000" stroke="none" 
	d="
M116.324783,92.051407 
	C115.784416,96.136864 117.063797,97.893982 120.942947,97.441238 
	C122.914116,97.211166 124.936058,97.453285 126.932137,97.390060 
	C129.540680,97.307434 131.686981,97.073982 131.748718,101.039124 
	C131.812546,105.139275 129.757019,105.070114 126.819778,105.060051 
	C116.344414,105.024132 116.366837,105.090431 116.309898,115.809242 
	C116.295044,118.605820 117.413506,122.034134 112.258698,121.705017 
	C109.316223,121.517151 108.088158,120.885239 108.238716,117.730896 
	C108.428429,113.756653 109.576302,108.700729 107.646301,106.055573 
	C105.525543,103.148956 100.188118,105.184898 96.272003,105.103981 
	C93.404198,105.044716 93.070183,103.736923 93.066277,101.408722 
	C93.062172,98.957985 93.244789,97.367661 96.443100,97.311005 
	C100.310966,97.242485 105.488640,99.265083 107.704063,96.097542 
	C109.526634,93.491699 108.443848,88.688248 108.239792,84.880684 
	C108.063217,81.585899 109.540779,81.095016 112.390961,81.040260 
	C115.491859,80.980698 116.624130,82.028511 116.360374,85.068199 
	C116.173950,87.216606 116.324783,89.394264 116.324783,92.051407 
z"/>
</svg>